PathFileType	3	(X/Y/Z)	C:\Users\koon_\Desktop\
DataRate	CameraRate	NumFrames	NumMarkers	Units	OrigDataRate	OrigDataStartFrame	OrigNumFrames
100.0	100.0	14	27	mm	100.0	1	3304	
Frame#	Time	GM:LFHD			GM:RFHD			GM:LBHD			GM:RBHD			GM:C7			GM:T10			GM:CLAV			GM:STRN			GM:RBAK			GM:LSHO			GM:LUPA			GM:LELB			GM:LFRA			GM:LWRA			GM:LWRB			GM:LFIN			GM:RSHO			GM:RUPA			GM:RELB			GM:RFRA			GM:RWRA			GM:RWRB			GM:RFIN			GM:LASI			GM:RASI			GM:LPSI			GM:RPSI			
		X1	Y1	Z1	X2	Y2	Z2	X3	Y3	Z3	X4	Y4	Z4	X5	Y5	Z5	X6	Y6	Z6	X7	Y7	Z7	X8	Y8	Z8	X9	Y9	Z9	X10	Y10	Z10	X11	Y11	Z11	X12	Y12	Z12	X13	Y13	Z13	X14	Y14	Z14	X15	Y15	Z15	X16	Y16	Z16	X17	Y17	Z17	X18	Y18	Z18	X19	Y19	Z19	X20	Y20	Z20	X21	Y21	Z21	X22	Y22	Z22	X23	Y23	Z23	X24	Y24	Z24	X25	Y25	Z25	X26	Y26	Z26	X27	Y27	Z27	
1	0	73.942062	1602.8257	-59.018681	-80.007751	1594.3997	-57.555424	74.052933	1578.6143	-190.05649	-89.006302	1573.3977	-171.70981	-5.465827	1415.9469	-221.93904	-2.8087792	1223.3053	-273.21255	8.8380661	1348.9216	-66.120613	8.7037029	1202.8878	-22.068064	-100.24745	1305.3977	-267.1142	173.93001	1386.1459	-156.46802	237.85275	1279.5006	-152.65584	262.23172	1066.6222	-179.78339				226.66133	899.93774	-38.421196	274.38568	877.38483	-79.290047	234.47681	817.78577	-5.2819343	-183.86191	1382.7399	-120.43814	-244.97249	1151.0913	-106.19917	-277.79306	1063.6765	-146.59451	-245.72792	1016.9108	-70.151192				-271.57782	870.76086	-64.391235	-236.01151	816.92328	12.95322	140.97867	903.11731	-45.891479	-153.92448	904.70941	-45.37912	72.794991	943.83057	-257.15622	-91.104797	929.46271	-257.03702
2	0.01	74.048431	1602.8064	-59.19545	-79.851601	1594.4081	-57.668484	74.156944	1578.6091	-190.16075	-88.916306	1573.3989	-171.82672	-5.4421496	1415.9377	-222.04469	-2.806428	1223.3221	-273.32565	8.9124775	1348.8977	-66.225456	8.7629414	1202.8762	-22.219168	-100.21685	1305.407	-267.22424	173.98692	1386.1138	-156.64287	237.93477	1279.4727	-152.81337	262.27029	1066.5889	-179.98045				226.72385	899.83698	-38.588127	274.40576	877.32672	-79.44976	234.47281	817.71954	-5.391696	-183.80106	1382.7081	-120.57006	-244.93565	1151.1034	-106.23967	-277.73419	1063.6733	-146.67928	-245.67648	1016.8943	-70.24453	-228.26526	893.61072	-24.117151	-271.49622	870.81812	-64.418198	-235.91882	816.95905	12.939332	140.9767	903.09265	-45.983681	-153.9166	904.70044	-45.478729	72.79213	943.82281	-257.21722	-91.082397	929.43823	-257.1134
3	0.02	74.134377	1602.8063	-59.318756	-79.689651	1594.4111	-57.808132	74.203545	1578.6006	-190.33615	-88.866203	1573.4214	-171.9138	-5.3502498	1415.9337	-222.19034	-2.7514675	1223.3104	-273.38843	9.0258675	1348.8641	-66.392944	8.8664074	1202.848	-22.287191	-100.16184	1305.359	-267.31116	174.04707	1386.0699	-156.77686	237.95375	1279.3816	-152.98367	262.25665	1066.5122	-180.1006				226.70746	899.80707	-38.750683	274.41193	877.27234	-79.648949	234.53746	817.66699	-5.5539937	-183.72852	1382.7191	-120.61573	-244.81383	1151.0858	-106.34577	-277.66422	1063.6825	-146.70744	-245.60129	1016.9128	-70.266953	-228.1913	893.62891	-24.139744	-271.44437	870.80994	-64.404655	-235.84663	816.95508	12.92469	141.00571	903.07104	-46.037552	-153.86249	904.71399	-45.497437	72.818283	943.82129	-257.29938	-91.045135	929.448	-257.16901
4	0.03	74.272919	1602.771	-59.465271	-79.623436	1594.4323	-57.907295	74.299492	1578.5969	-190.50162	-88.757484	1573.422	-172.03163	-5.321208	1415.9279	-222.29935	-2.6924703	1223.2728	-273.44632	9.1029711	1348.8584	-66.500282	8.9313154	1202.819	-22.435345	-100.08609	1305.3245	-267.4234	174.12505	1386.0128	-156.92365	238.01274	1279.3358	-153.16002	262.30756	1066.4568	-180.28546				226.79716	899.77399	-38.85434	274.43152	877.24536	-79.777771	234.62515	817.64606	-5.6577268	-183.64502	1382.7159	-120.73201	-244.75832	1151.079	-106.39564	-277.58331	1063.6611	-146.8286	-245.49995	1016.9009	-70.310081	-228.09511	893.66205	-24.143614	-271.3833	870.78949	-64.497124	-235.82742	816.95996	12.849562	141.04645	903.03662	-46.202156	-153.84825	904.75702	-45.553444	72.797325	943.75153	-257.37009	-91.024681	929.45508	-257.22601
5	0.04	74.360748	1602.7899	-59.612576	-79.507713	1594.4041	-57.959885	74.398384	1578.6212	-190.62727	-88.721748	1573.425	-172.08498	-5.2419524	1415.902	-222.40286	-2.6916232	1223.2906	-273.55887	9.1727905	1348.8529	-66.601067	8.6421041	1202.6047	-23.250635	-100.00449	1305.2886	-267.48196	174.1391	1385.95	-157.07896	238.05066	1279.2924	-153.28119	262.26273	1066.3925	-180.50754				226.82381	899.72601	-39.038094	274.43555	877.15088	-79.935333	234.6468	817.62439	-5.8344412	-183.54686	1382.6521	-120.81304	-244.71289	1151.067	-106.48099	-277.5097	1063.6367	-146.85367	-245.43887	1016.8602	-70.399925	-228.6669	893.10626	-25.58182	-271.35147	870.79102	-64.584557	-235.72722	816.90802	12.814592	141.03452	902.98676	-46.243603	-153.84067	904.75244	-45.605022	72.87558	943.77155	-257.47083	-91.025604	929.44501	-257.29044
6	0.05	74.501045	1602.7943	-59.733173	-79.383232	1594.4752	-58.140923	74.477036	1578.5955	-190.79526	-88.624496	1573.4778	-172.20587	-5.2086911	1415.8815	-222.51012	-2.6140168	1223.2361	-273.66782	9.2355709	1348.7869	-66.807854	8.7866974	1202.6367	-23.333668	-99.997948	1305.2711	-267.64725	174.20328	1385.9135	-157.22385	238.06369	1279.2411	-153.47757	262.23618	1066.3058	-180.65604				226.81593	899.66876	-39.21664	274.46219	877.08856	-80.117668	234.6805	817.58374	-5.959177	-183.53119	1382.6545	-120.94011	-244.61746	1151.033	-106.59203	-277.45291	1063.6149	-146.94609	-245.36266	1016.8524	-70.416733	-228.59612	893.07843	-25.716341	-271.25977	870.74194	-64.641113	-235.6667	816.9389	12.718869	141.06071	902.97906	-46.32999	-153.79807	904.78278	-45.685043	72.879341	943.74353	-257.52045	-90.992409	929.42419	-257.36185
7	0.06	74.559456	1602.7714	-59.909595	-79.305885	1594.5054	-58.255402	74.535812	1578.5928	-190.92932	-88.53698	1573.4851	-172.3215	-5.1261163	1415.8925	-222.64688	-2.5666311	1223.2189	-273.71832	9.2582865	1348.7977	-66.922279	9.1349459	1202.7816	-22.842293	-99.920738	1305.2395	-267.70917	174.23911	1385.8456	-157.37978	238.09933	1279.1815	-153.64281	262.23151	1066.261	-180.86775				226.90742	899.67517	-39.318768	274.48495	877.02917	-80.280388	234.76437	817.5683	-6.1000009	-183.49393	1382.7118	-121.1045	-244.54237	1151.0175	-106.69055	-277.36899	1063.5957	-147.07954	-245.28668	1016.8303	-70.534866	-227.95239	893.59937	-24.430382	-271.17719	870.71936	-64.760078	-235.65161	816.94922	12.658168	141.08751	902.97089	-46.417881	-153.76172	904.78888	-45.724483	72.880486	943.67798	-257.61484	-90.950584	929.41315	-257.44223
8	0.07	74.704926	1602.7925	-60.034576	-79.189445	1594.478	-58.310741	74.588425	1578.5865	-191.10162	-88.477875	1573.5126	-172.46318	-5.0696626	1415.8871	-222.7749	-2.5592299	1223.243	-273.84296	9.3235292	1348.7692	-67.071854	9.140523	1202.7634	-23.012283	-99.85778	1305.2177	-267.85336	174.30435	1385.8251	-157.58162	238.17249	1279.1353	-153.83109	261.96802	1066.332	-180.61978				226.87779	899.60333	-39.565414	274.49118	876.995	-80.47438	234.7476	817.54828	-6.2334571	-183.39569	1382.6147	-121.16715	-244.45311	1150.9857	-106.73272	-277.29453	1063.5574	-147.21051	-245.23586	1016.8128	-70.627037	-228.4505	893.04865	-25.879524	-271.12134	870.73566	-64.857681	-235.58412	816.92682	12.575697	141.07048	902.91382	-46.524734	-153.7765	904.82031	-45.854145	72.935265	943.6933	-257.68826	-90.901276	929.38916	-257.49875
9	0.08	74.814209	1602.7941	-60.20702	-79.086853	1594.5068	-58.48354	74.61602	1578.5844	-191.283	-88.411011	1573.5137	-172.49248	-5.012867	1415.882	-222.91629	-2.5079927	1223.1808	-273.89316	9.3956728	1348.7557	-67.276947	8.9579115	1202.5635	-23.636139	-99.798561	1305.1885	-267.94186	174.3494	1385.7863	-157.74577	238.21149	1279.0896	-154.05672	262.15009	1066.1545	-181.10706				226.91066	899.58185	-39.704296	274.47339	876.94714	-80.640526	234.75873	817.49493	-6.4131904	-183.36795	1382.6232	-121.3243	-244.39896	1150.9728	-106.86285	-277.21243	1063.5375	-147.3378	-245.15948	1016.7913	-70.745941	-228.37988	893.02222	-26.013992	-271.05963	870.71497	-64.948967	-235.52086	816.9165	12.476135	141.09369	902.88721	-46.601036	-153.78629	904.82111	-45.867523	72.986191	943.69214	-257.76517	-90.87677	929.38623	-257.59045
10	0.09	74.927414	1602.7772	-60.332424	-78.954605	1594.5638	-58.527714	74.704544	1578.5906	-191.36591	-88.861038	1573.5272	-172.53036	-4.9818225	1415.8768	-223.02371	-2.5024428	1223.1732	-274.00061	9.491415	1348.7217	-67.386757	9.2803011	1202.7512	-23.298109	-99.744835	1305.1665	-268.08279	174.42213	1385.748	-157.94727	238.29114	1279.0371	-154.24107	261.71616	1066.021	-181.38229				226.93576	899.55121	-39.880741	274.48172	876.86053	-80.834023	234.78349	817.40405	-6.5963879	-183.26262	1382.5316	-121.36219	-244.33813	1150.9393	-107.03509	-277.14407	1063.5182	-147.45607	-245.08472	1016.7693	-70.863556	-228.30072	892.9812	-26.04488	-270.97763	870.65228	-65.058075	-235.43434	816.88751	12.321638	141.10464	902.83331	-46.646233	-153.75426	904.83014	-45.96032	73.000519	943.64008	-257.79138	-90.815811	929.35968	-257.64148
11	0.1	75.018402	1602.7699	-60.483913	-78.834465	1594.5333	-58.643715	74.759468	1578.562	-191.53851	-88.768341	1573.5336	-172.67538	-4.9285049	1415.8602	-223.1828	-2.4224758	1223.1693	-274.12088	9.5494728	1348.7117	-67.525475	9.3538933	1202.757	-23.459448	-99.686142	1305.1383	-268.17172	174.47058	1385.7164	-158.1133	238.31328	1279.0023	-154.44891	261.86868	1066.1255	-181.23358				226.92279	899.49506	-40.057705	274.45538	876.8313	-81.014137	235.07442	817.53101	-6.2076912	-183.18745	1382.5084	-121.53262	-244.27686	1150.9054	-107.15174	-277.04205	1063.4796	-147.61774	-244.99904	1016.7475	-70.982834	-227.69579	893.4364	-24.993216	-270.89526	870.63	-65.177254	-235.35754	816.85559	12.214504	141.15623	902.84485	-46.737221	-153.78175	904.82672	-46.083092	73.047455	943.61292	-257.87918	-90.792175	929.35413	-257.72958
12	0.11	75.127701	1602.7732	-60.60387	-78.77549	1594.5502	-58.726616	74.785057	1578.5719	-191.72704	-88.680641	1573.5399	-172.81688	-4.8922019	1415.8344	-223.30391	-2.3922944	1223.115	-274.22769	9.5616093	1348.7014	-67.686707	9.395525	1202.7472	-23.559832	-99.631783	1305.0927	-268.30634	174.47858	1385.6575	-158.26714	238.36977	1278.9688	-154.64644	261.9809	1065.9773	-181.6981				226.9637	899.45496	-40.169277	274.4577	876.77014	-81.192238	235.14157	817.47839	-6.362051	-183.1562	1382.5149	-121.68301	-244.2285	1150.8975	-107.2549	-276.96844	1063.4563	-147.72316	-244.92249	1016.7259	-71.1017	-227.63182	893.43335	-25.134529	-270.7948	870.62354	-65.33783	-235.27888	816.83136	12.10718	141.14406	902.82928	-46.852104	-153.65497	904.83917	-46.126873	73.074539	943.61017	-257.96173	-90.732269	929.34296	-257.80759
13	0.12	75.175789	1602.7915	-60.770611	-78.691917	1594.6117	-58.861538	74.840759	1578.5786	-191.85707	-88.575554	1573.4653	-172.8756	-4.8470397	1415.8326	-223.4196	-2.3801465	1223.1111	-274.34943	9.6797934	1348.6638	-67.869019	9.4043226	1202.7667	-23.736868	-99.577751	1305.0846	-268.39673	174.54732	1385.618	-158.4987	238.38832	1278.9076	-154.83704	261.95981	1065.9271	-181.87378				227.02846	899.43457	-40.400333	274.46762	876.68317	-81.405334	235.18518	817.42554	-6.5588169	-183.11348	1382.5299	-121.84553	-244.18472	1150.8634	-107.45494	-276.918	1063.4375	-147.80865	-244.83548	1016.6811	-71.219246	-227.54639	893.34735	-25.259193	-270.73758	870.5835	-65.432693	-235.15143	816.77576	11.929763	141.12292	902.7951	-46.962921	-153.61511	904.86768	-46.205982	73.099045	943.57471	-257.95618	-90.708778	929.31097	-257.91623
14	0.13	75.285561	1602.7938	-60.955284	-78.589981	1594.6265	-59.025616	74.875214	1578.5767	-192.0125	-88.511536	1573.4535	-172.96262	-4.7891889	1415.8209	-223.56973	-2.3066518	1223.103	-274.45779	9.7186632	1348.6736	-68.018913	9.4724159	1202.7446	-23.794058	-99.520531	1305.0458	-268.53644	174.58188	1385.595	-158.68951	238.41808	1278.8713	-155.02321	261.93518	1065.8635	-182.06583				227.05124	899.40564	-40.603134	274.46252	876.64191	-81.660431	235.22079	817.3988	-6.7668605	-183.00934	1382.4426	-121.89874	-244.11208	1150.849	-107.5547	-276.81662	1063.3967	-147.97514	-244.78462	1016.6509	-71.413567	-227.50911	893.33643	-25.463991	-270.65588	870.56128	-65.549362	-235.04886	816.77325	11.755065	141.13196	902.79047	-46.995293	-153.55307	904.81757	-46.288059	73.14209	943.57062	-258.02338	-90.662743	929.32434	-258.02161
